HIERARCHY
ROOT Bip001_Pelvis
{
  OFFSET 34.4345 95.6767 -26.8758
  CHANNELS 6 Xposition Yposition Zposition Zrotation Xrotation Yrotation
  JOINT Bip001_Spine
  {
    OFFSET 1.4188e-005 10.2191 -0.0116013
    CHANNELS 3 Zrotation Xrotation Yrotation
    JOINT Bip001_L_Thigh
    {
      OFFSET 11.0458 -10.2192 0.0116197
      CHANNELS 3 Zrotation Xrotation Yrotation
      JOINT Bip001_L_Calf
      {
        OFFSET -0.707118 -44.0221 0.360014
        CHANNELS 3 Zrotation Xrotation Yrotation
        JOINT Bip001_L_Foot
        {
          OFFSET -0.651902 -40.5938 -3.56146
          CHANNELS 3 Zrotation Xrotation Yrotation
          JOINT Bip001_L_Toe0
          {
            OFFSET 0.0530839 -10.2181 13.1504
            CHANNELS 3 Zrotation Xrotation Yrotation
            End Site
            {
              OFFSET -1.02532e-005 0 7.55606
            }
          }
        }
      }
    }
    JOINT Bip001_R_Thigh
    {
      OFFSET -11.0458 -10.2191 0.0115893
      CHANNELS 3 Zrotation Xrotation Yrotation
      JOINT Bip001_R_Calf
      {
        OFFSET 0.706994 -44.0221 0.35984
        CHANNELS 3 Zrotation Xrotation Yrotation
        JOINT Bip001_R_Foot
        {
          OFFSET 0.651786 -40.5938 -3.5613
          CHANNELS 3 Zrotation Xrotation Yrotation
          JOINT Bip001_R_Toe0
          {
            OFFSET -0.0531479 -10.2181 13.1504
            CHANNELS 3 Zrotation Xrotation Yrotation
            End Site
            {
              OFFSET -1.02894e-005 0 7.55606
            }
          }
        }
      }
    }
    JOINT Bip001_Spine1
    {
      OFFSET 1.87041e-005 14.5736 1.08638
      CHANNELS 3 Zrotation Xrotation Yrotation
      JOINT Bip001_Spine2
      {
        OFFSET 2.24614e-005 14.5058 -1.69078
        CHANNELS 3 Zrotation Xrotation Yrotation
        JOINT Bip001_Neck
        {
          OFFSET 2.20278e-005 15.3945 -0.489414
          CHANNELS 3 Zrotation Xrotation Yrotation
          JOINT Bip001_L_Clavicle
          {
            OFFSET 6.06036 -0.000579998 0.00836775
            CHANNELS 3 Zrotation Xrotation Yrotation
            JOINT Bip001_L_UpperArm
            {
              OFFSET 11.5509 -0.0600302 0.00193952
              CHANNELS 3 Zrotation Xrotation Yrotation
              JOINT Bip001_L_Forearm
              {
                OFFSET 25.9523 0.0806089 -2.15551
                CHANNELS 3 Zrotation Xrotation Yrotation
                JOINT Bip001_L_Hand
                {
                  OFFSET 32.2475 0.153767 1.63968
                  CHANNELS 3 Zrotation Xrotation Yrotation
                  JOINT Bip001_L_Finger0
                  {
                    OFFSET 6.04639 -2.20976 5.90322
                    CHANNELS 3 Zrotation Xrotation Yrotation
                    End Site
                    {
                      OFFSET 4.22375 -1.43895 0.606485
                    }
                  }
                  JOINT Bip001_L_Finger1
                  {
                    OFFSET 11.0826 -0.704819 -0.198153
                    CHANNELS 3 Zrotation Xrotation Yrotation
                    End Site
                    {
                      OFFSET 6.20027 -0.397518 -0.0787166
                    }
                  }
                }
              }
            }
          }
          JOINT Bip001_R_Clavicle
          {
            OFFSET -6.06037 -0.000563197 0.00835105
            CHANNELS 3 Zrotation Xrotation Yrotation
            JOINT Bip001_R_UpperArm
            {
              OFFSET -11.5509 -0.0599978 0.00190698
              CHANNELS 3 Zrotation Xrotation Yrotation
              JOINT Bip001_R_Forearm
              {
                OFFSET -25.9523 0.0806822 -2.15589
                CHANNELS 3 Zrotation Xrotation Yrotation
                JOINT Bip001_R_Hand
                {
                  OFFSET -32.2475 0.153859 1.63989
                  CHANNELS 3 Zrotation Xrotation Yrotation
                  JOINT Bip001_R_Finger0
                  {
                    OFFSET -6.04641 -2.20976 5.90317
                    CHANNELS 3 Zrotation Xrotation Yrotation
                    End Site
                    {
                      OFFSET -4.22376 -1.43895 0.60647
                    }
                  }
                  JOINT Bip001_R_Finger1
                  {
                    OFFSET -11.0826 -0.704794 -0.198182
                    CHANNELS 3 Zrotation Xrotation Yrotation
                    End Site
                    {
                      OFFSET -6.20028 -0.397504 -0.0787333
                    }
                  }
                }
              }
            }
          }
          JOINT Bip001_Head
          {
            OFFSET 1.09673e-005 11.2744 2.05948
            CHANNELS 3 Zrotation Xrotation Yrotation
            End Site
            {
              OFFSET 2.89576e-005 20.8808 -2.77728e-005
            }
          }
        }
      }
    }
  }
}
MOTION
Frames:	8
Frame Time:	0.04
33.0709 95.9428 -29.5663 0.547413 -0.119663 2.77635 -0.325377 2.0867 0.0947078 4.99985 -4.1805 9.91056 -0.0641018 7.45481 -11.5596 2.46778 -3.54263 -0.0415968 0.676976 -4.12299 -0.20149 -3.34488 -3.76838 -2.75313 -0.0552692 10.5702 0.391569 -5.52562 -9.29623 1.96165 2.1765 -7.38718 2.23089 -0.652214 4.17281 0.201598 -0.653035 4.17281 0.201598 1.6626 -8.5389 -3.28992 -25.7664 8.73571 1.96967 -58.7373 42.9976 5.56388 17.2152 3.54512 -20.9684 9.27647 2.14587 -4.18425 -6.36111e-015 6.36111e-015 -1.59028e-015 -3.18055e-015 9.54167e-015 -1.59028e-015 23.5155 16.6519 19.6261 51.9032 7.41661 0.543471 -6.96288 38.887 12.3803 -19.9386 -2.95442 5.24321 -9.54166e-015 3.18055e-015 -0 -6.36111e-015 3.18056e-015 -0 -1.63049 -4.85078 -2.51548 
33.1264 95.9618 -29.38 0.640331 -0.364157 2.4106 -0.326685 2.15048 0.12677 4.79781 -3.50314 8.82535 -0.144043 6.7915 -10.2076 2.53573 -3.30165 -0.0415863 0.722197 -4.21165 -0.225394 -3.49325 -3.4468 -3.05575 -0.101911 10.4235 0.497761 -5.36598 -9.38339 2.45865 2.15859 -7.33485 2.23063 -0.657492 4.30019 0.266024 -0.658313 4.30019 0.266025 1.91715 -8.50993 -3.31613 -26.0474 8.72864 1.80581 -58.8125 43.0082 5.3414 17.2119 4.47687 -20.8919 9.46588 1.89859 -4.70347 -3.18055e-015 3.18055e-015 -0 -3.18055e-015 3.18056e-015 -0 23.2872 16.5487 19.3887 52.8829 7.79258 1.23259 -5.89075 40.1674 10.4012 -15.9365 -4.01839 8.58004 -3.18055e-015 0 7.95139e-016 -0 0 7.95139e-016 -1.92815 -4.99219 -2.43171 
33.2193 95.9695 -29.3486 0.738815 -0.303142 1.8613 -0.33851 2.16741 0.17806 4.53622 -3.28946 8.21383 -0.0849397 6.4039 -9.16711 2.61683 -3.11508 -0.0415788 0.727687 -4.29025 -0.215885 -3.70274 -3.70561 -3.0155 -0.0636836 10.6386 0.510834 -5.23483 -9.4601 2.82755 2.14977 -7.30395 2.2187 -0.68258 4.33594 0.369306 -0.682583 4.33596 0.369308 2.13798 -8.6477 -3.2798 -26.2638 8.8518 1.8271 -58.8503 43.0728 4.93672 17.1582 4.86122 -20.8816 9.58863 2.11456 -4.86582 1.76556e-031 6.36111e-015 -1.59028e-015 8.82782e-032 3.18056e-015 -1.59028e-015 23.1806 16.5635 18.9518 53.9412 8.30755 1.76432 -5.77681 40.4429 9.77339 -13.3947 -3.8708 11.6706 6.36111e-015 -3.18055e-015 -1.59028e-015 3.18055e-015 0 -2.38542e-015 -2.15408 -5.00402 -2.30817 
33.2638 95.9728 -29.3197 0.771323 -0.274762 1.40024 -0.341429 2.18898 0.197417 4.46155 -3.19264 7.86523 -0.111769 6.31475 -8.34592 2.45617 -3.1981 -0.0415821 0.694837 -4.18854 -0.189002 -3.7877 -3.88933 -2.96097 -0.0770953 10.7763 0.503519 -5.13794 -9.52185 3.16702 2.14339 -7.27793 2.21345 -0.690735 4.37669 0.399375 -0.690957 4.3767 0.403043 2.25071 -8.58043 -3.16516 -26.3111 8.81959 1.7381 -58.8563 43.1041 4.51737 17.2492 5.27335 -20.6557 10.2845 2.03409 -5.18298 3.18055e-015 0 -1.59028e-015 0 3.18056e-015 -0 23.1114 16.3315 18.4777 54.7385 8.95037 1.9258 -5.52356 40.0928 10.1795 -13.5976 -4.026 12.1495 0 0 -7.95139e-016 3.18055e-015 0 -1.59028e-015 -2.26717 -5.28446 -2.15494 
33.2777 95.9689 -29.2407 0.743534 -0.379553 1.03944 -0.323617 2.2169 0.203325 4.46759 -3.00776 7.81142 -0.162057 6.33253 -7.98158 2.61746 -3.20455 -0.0415823 0.724374 -4.24515 -0.21059 -3.77136 -3.90574 -3.0004 -0.170632 10.9238 0.540401 -5.02548 -9.57438 3.48764 2.1372 -7.27281 2.21089 -0.654255 4.43273 0.412335 -0.655173 4.43271 0.412214 2.28511 -8.47449 -3.0436 -26.2229 8.76997 1.60059 -58.7943 43.1842 4.05199 17.1588 5.58147 -20.1357 10.8758 2.13761 -5.26695 3.18055e-015 3.18055e-015 -1.59028e-015 3.18055e-015 3.18056e-015 -1.59028e-015 23.0107 16.0166 17.9795 55.7037 9.71948 2.10858 -6.04308 39.2459 10.8035 -15.4383 -4.66346 11.9456 -0 0 2.38542e-015 -0 0 1.59028e-015 -2.35052 -5.39057 -2.01485 
33.3315 95.9587 -29.1978 0.763255 -0.417479 0.818044 -0.318801 2.22695 0.184308 4.40383 -2.9407 7.85246 -0.146498 6.40423 -7.74822 2.58045 -3.33497 -0.0415877 0.737332 -4.19606 -0.215794 -3.83919 -3.95646 -3.00651 -0.195359 11.0472 0.566906 -4.99163 -9.63738 3.69067 2.13549 -7.27363 2.20771 -0.645289 4.45385 0.381526 -0.64476 4.45387 0.381509 2.54271 -8.28459 -2.94453 -26.3432 8.60051 1.50378 -58.5717 43.1928 3.59097 16.9995 6.06399 -19.6872 10.874 2.23601 -5.18262 -3.18055e-015 3.18055e-015 -1.59028e-015 -3.18055e-015 0 -1.59028e-015 22.4786 15.4437 17.0849 56.345 11.1596 2.73389 -6.89193 38.4031 10.9623 -16.023 -5.1118 11.443 -6.36111e-015 -3.18055e-015 3.18055e-015 -3.18055e-015 -3.18056e-015 -0 -2.60488 -5.6466 -1.82194 
33.3791 95.9601 -29.149 0.76845 -0.424834 0.716935 -0.312511 2.22689 0.142313 4.36416 -2.87639 7.72919 -0.160964 6.38492 -7.43571 2.48348 -3.3949 -0.0414907 0.722222 -4.15481 -0.210496 -3.90405 -3.92379 -2.90244 -0.144147 11.0131 0.620393 -5.00745 -9.64372 3.68855 2.12971 -7.23951 2.18675 -0.63133 4.45887 0.297075 -0.63133 4.45888 0.297075 2.74595 -8.03652 -2.84739 -26.5018 8.42024 1.25697 -58.3649 42.9269 3.36079 16.8892 6.71858 -19.4292 10.8856 2.32369 -5.14316 -3.18055e-015 0 1.59028e-015 -3.18055e-015 3.18056e-015 1.59028e-015 22.1236 14.9743 16.5999 56.3608 11.8253 2.4686 -7.66113 37.6039 11.806 -14.9586 -4.43887 10.1383 3.18055e-015 6.36111e-015 -3.18055e-015 2.64834e-031 3.18056e-015 -4.77083e-015 -2.68802 -6.02621 -1.67278 
33.3778 95.9694 -29.0843 0.726815 -0.442968 0.671114 -0.297011 2.22642 0.122036 4.4036 -2.80097 7.60336 -0.19 6.38514 -7.18816 2.39861 -3.4971 -0.0396018 0.719233 -4.03388 -0.227024 -3.85972 -3.83087 -2.92265 -0.169548 10.9135 0.643589 -4.98391 -9.59331 3.71387 2.1196 -7.21674 2.20079 -0.598854 4.45915 0.255959 -0.599442 4.45915 0.255932 2.87176 -8.0337 -2.83717 -26.7445 8.38789 1.33206 -57.9835 43.0391 3.05085 16.6404 6.93448 -19.2289 10.9716 2.2521 -5.22379 3.18055e-015 0 -0 3.18055e-015 -3.18056e-015 -0 21.9835 14.927 16.49 56.1807 12.0067 1.95849 -8.04805 37.0632 12.5003 -13.8139 -4.24271 9.85542 -8.82781e-032 6.36111e-015 7.95139e-016 -3.18055e-015 3.18056e-015 -7.95139e-016 -2.76309 -6.1023 -1.62512 
